<mxfile host="65bd71144e">
    <diagram id="mB0hwqxY4hN_ohiOeoHB" name="Page-1">
        <mxGraphModel dx="2756" dy="2398" grid="0" gridSize="10" guides="0" tooltips="0" connect="1" arrows="1" fold="1" page="0" pageScale="1" pageWidth="850" pageHeight="1100" math="0" shadow="0">
            <root>
                <mxCell id="0"/>
                <mxCell id="1" parent="0"/>
                <mxCell id="10" value="" style="edgeStyle=none;html=1;fontColor=#FFCC99;" parent="1" source="2" target="9" edge="1">
                    <mxGeometry relative="1" as="geometry"/>
                </mxCell>
                <mxCell id="11" style="edgeStyle=none;html=1;fontColor=#FFCC99;" parent="1" source="2" target="3" edge="1">
                    <mxGeometry relative="1" as="geometry"/>
                </mxCell>
                <mxCell id="13" value="" style="edgeStyle=none;html=1;fontColor=#FFCC99;" parent="1" source="2" target="12" edge="1">
                    <mxGeometry relative="1" as="geometry"/>
                </mxCell>
                <mxCell id="73" style="edgeStyle=none;html=1;entryX=0;entryY=0.5;entryDx=0;entryDy=0;" parent="1" source="2" target="72" edge="1">
                    <mxGeometry relative="1" as="geometry"/>
                </mxCell>
                <mxCell id="74" style="edgeStyle=none;html=1;" parent="1" source="2" edge="1">
                    <mxGeometry relative="1" as="geometry">
                        <mxPoint x="798" y="-387" as="targetPoint"/>
                    </mxGeometry>
                </mxCell>
                <mxCell id="79" style="edgeStyle=none;html=1;" parent="1" source="2" edge="1">
                    <mxGeometry relative="1" as="geometry">
                        <mxPoint x="679" y="-250" as="targetPoint"/>
                    </mxGeometry>
                </mxCell>
                <mxCell id="103" style="edgeStyle=none;html=1;entryX=1;entryY=0.25;entryDx=0;entryDy=0;strokeColor=#FF8000;" parent="1" source="2" target="85" edge="1">
                    <mxGeometry relative="1" as="geometry"/>
                </mxCell>
                <mxCell id="2" value="Storage Manager&amp;nbsp;" style="rounded=1;whiteSpace=wrap;html=1;fillColor=#008a00;fontColor=#FFCC99;strokeColor=#005700;" parent="1" vertex="1">
                    <mxGeometry x="509" y="-368" width="120" height="60" as="geometry"/>
                </mxCell>
                <mxCell id="3" value="ручка для сохранения, удаления сообщения." style="rounded=1;whiteSpace=wrap;html=1;fontColor=#FFCC99;" parent="1" vertex="1">
                    <mxGeometry x="723" y="-583" width="120" height="60" as="geometry"/>
                </mxCell>
                <mxCell id="6" value="" style="edgeStyle=none;html=1;fontColor=#FFCC99;" parent="1" source="4" target="5" edge="1">
                    <mxGeometry relative="1" as="geometry"/>
                </mxCell>
                <mxCell id="8" value="" style="edgeStyle=none;html=1;fontColor=#FFCC99;" parent="1" source="4" target="7" edge="1">
                    <mxGeometry relative="1" as="geometry"/>
                </mxCell>
                <mxCell id="30" style="edgeStyle=none;html=1;fontColor=#FFCC99;" parent="1" source="4" target="29" edge="1">
                    <mxGeometry relative="1" as="geometry"/>
                </mxCell>
                <mxCell id="4" value="REST - service?" style="rounded=1;whiteSpace=wrap;html=1;fillColor=#008a00;fontColor=#FFCC99;strokeColor=#005700;" parent="1" vertex="1">
                    <mxGeometry x="-374" y="-205" width="120" height="60" as="geometry"/>
                </mxCell>
                <mxCell id="5" value="создать чат" style="rounded=1;whiteSpace=wrap;html=1;fontColor=#FFCC99;" parent="1" vertex="1">
                    <mxGeometry x="-626" y="-184" width="120" height="60" as="geometry"/>
                </mxCell>
                <mxCell id="7" value="список секций&lt;br&gt;&amp;nbsp;и &lt;br&gt;категорий." style="rounded=1;whiteSpace=wrap;html=1;fontColor=#FFCC99;" parent="1" vertex="1">
                    <mxGeometry x="-553" y="-94" width="120" height="60" as="geometry"/>
                </mxCell>
                <mxCell id="9" value="обновление контента по ид" style="rounded=1;whiteSpace=wrap;html=1;fontColor=#FFCC99;" parent="1" vertex="1">
                    <mxGeometry x="800" y="-503" width="120" height="60" as="geometry"/>
                </mxCell>
                <mxCell id="12" value="последние непрочитанные" style="rounded=1;whiteSpace=wrap;html=1;fontColor=#FFCC99;" parent="1" vertex="1">
                    <mxGeometry x="548" y="-581" width="120" height="60" as="geometry"/>
                </mxCell>
                <mxCell id="16" value="" style="edgeStyle=none;html=1;fontColor=#FFCC99;" parent="1" source="14" target="15" edge="1">
                    <mxGeometry relative="1" as="geometry"/>
                </mxCell>
                <mxCell id="18" value="" style="edgeStyle=none;html=1;fontColor=#FFCC99;" parent="1" source="14" target="17" edge="1">
                    <mxGeometry relative="1" as="geometry"/>
                </mxCell>
                <mxCell id="35" style="edgeStyle=none;html=1;fontColor=#FFCC99;" parent="1" source="14" target="34" edge="1">
                    <mxGeometry relative="1" as="geometry"/>
                </mxCell>
                <mxCell id="14" value="gRPC Manager" style="rounded=1;whiteSpace=wrap;html=1;fillColor=#008a00;fontColor=#FFCC99;strokeColor=#005700;" parent="1" vertex="1">
                    <mxGeometry x="189" y="241" width="120" height="60" as="geometry"/>
                </mxCell>
                <mxCell id="91" style="edgeStyle=none;html=1;entryX=0.5;entryY=1;entryDx=0;entryDy=0;strokeColor=#FF8000;" parent="1" source="15" target="86" edge="1">
                    <mxGeometry relative="1" as="geometry"/>
                </mxCell>
                <mxCell id="15" value="Подключение" style="rounded=1;whiteSpace=wrap;html=1;fontColor=#FFCC99;" parent="1" vertex="1">
                    <mxGeometry x="23" y="245" width="120" height="60" as="geometry"/>
                </mxCell>
                <mxCell id="89" style="edgeStyle=none;html=1;strokeColor=#FF8000;" parent="1" source="17" target="90" edge="1">
                    <mxGeometry relative="1" as="geometry"/>
                </mxCell>
                <mxCell id="17" value="Stream" style="rounded=1;whiteSpace=wrap;html=1;fontColor=#FFCC99;" parent="1" vertex="1">
                    <mxGeometry x="302" y="47" width="120" height="60" as="geometry"/>
                </mxCell>
                <mxCell id="21" value="" style="edgeStyle=none;html=1;fontColor=#FFCC99;" parent="1" source="19" target="20" edge="1">
                    <mxGeometry relative="1" as="geometry"/>
                </mxCell>
                <mxCell id="23" value="" style="edgeStyle=none;html=1;fontColor=#FFCC99;" parent="1" source="19" target="22" edge="1">
                    <mxGeometry relative="1" as="geometry"/>
                </mxCell>
                <mxCell id="57" style="edgeStyle=none;html=1;fontColor=#FFCC99;" parent="1" source="19" target="58" edge="1">
                    <mxGeometry relative="1" as="geometry">
                        <mxPoint x="-10" y="-718" as="targetPoint"/>
                    </mxGeometry>
                </mxCell>
                <mxCell id="59" style="edgeStyle=none;html=1;fontColor=#FFCC99;entryX=0.969;entryY=0.978;entryDx=0;entryDy=0;entryPerimeter=0;" parent="1" source="19" target="60" edge="1">
                    <mxGeometry relative="1" as="geometry">
                        <mxPoint x="-181.33333333333326" y="-758.6666666666666" as="targetPoint"/>
                    </mxGeometry>
                </mxCell>
                <mxCell id="19" value="Content Loader" style="rounded=1;whiteSpace=wrap;html=1;fillColor=#008a00;fontColor=#FFCC99;strokeColor=#005700;" parent="1" vertex="1">
                    <mxGeometry x="-71" y="-650" width="120" height="60" as="geometry"/>
                </mxCell>
                <mxCell id="63" style="edgeStyle=none;html=1;entryX=0;entryY=0.5;entryDx=0;entryDy=0;fontColor=#FFCC99;" parent="1" source="20" target="22" edge="1">
                    <mxGeometry relative="1" as="geometry"/>
                </mxCell>
                <mxCell id="20" value="Формирует очередь запросов" style="rounded=1;whiteSpace=wrap;html=1;fontColor=#FFCC99;" parent="1" vertex="1">
                    <mxGeometry x="-194" y="-929" width="120" height="60" as="geometry"/>
                </mxCell>
                <mxCell id="105" style="edgeStyle=none;html=1;strokeColor=#FF8000;" parent="1" source="22" edge="1">
                    <mxGeometry relative="1" as="geometry">
                        <mxPoint x="85" y="-784" as="targetPoint"/>
                    </mxGeometry>
                </mxCell>
                <mxCell id="22" value="Сервис выполняющий REST запросы" style="rounded=1;whiteSpace=wrap;html=1;fontColor=#FFCC99;" parent="1" vertex="1">
                    <mxGeometry x="-46" y="-916" width="120" height="60" as="geometry"/>
                </mxCell>
                <mxCell id="28" style="edgeStyle=none;html=1;fontColor=#FFCC99;" parent="1" source="24" target="27" edge="1">
                    <mxGeometry relative="1" as="geometry"/>
                </mxCell>
                <mxCell id="37" value="" style="edgeStyle=none;html=1;fontColor=#FFCC99;" parent="1" source="24" target="36" edge="1">
                    <mxGeometry relative="1" as="geometry"/>
                </mxCell>
                <mxCell id="24" value="Чат manager" style="rounded=1;whiteSpace=wrap;html=1;fillColor=#008a00;fontColor=#FFCC99;strokeColor=#005700;" parent="1" vertex="1">
                    <mxGeometry x="202" y="-828" width="120" height="60" as="geometry"/>
                </mxCell>
                <mxCell id="122" style="edgeStyle=none;html=1;strokeColor=#FF8000;" parent="1" source="27" target="119" edge="1">
                    <mxGeometry relative="1" as="geometry"/>
                </mxCell>
                <mxCell id="123" style="edgeStyle=none;html=1;strokeColor=#FF8000;" parent="1" source="27" target="120" edge="1">
                    <mxGeometry relative="1" as="geometry"/>
                </mxCell>
                <mxCell id="124" style="edgeStyle=none;html=1;strokeColor=#FF8000;entryX=0;entryY=0.5;entryDx=0;entryDy=0;" parent="1" source="27" target="121" edge="1">
                    <mxGeometry relative="1" as="geometry">
                        <mxPoint x="465.3103448275865" y="-920" as="targetPoint"/>
                    </mxGeometry>
                </mxCell>
                <mxCell id="125" style="edgeStyle=none;html=1;strokeColor=#FF8000;entryX=0.013;entryY=0.59;entryDx=0;entryDy=0;entryPerimeter=0;" parent="1" source="27" target="126" edge="1">
                    <mxGeometry relative="1" as="geometry">
                        <mxPoint x="408.75862068965534" y="-848.8620689655172" as="targetPoint"/>
                    </mxGeometry>
                </mxCell>
                <mxCell id="27" value="Отправка запросов в&amp;nbsp; Storage Manager&amp;nbsp;" style="rounded=1;whiteSpace=wrap;html=1;fontColor=#FFCC99;" parent="1" vertex="1">
                    <mxGeometry x="313" y="-950" width="120" height="60" as="geometry"/>
                </mxCell>
                <mxCell id="29" value="список чатов" style="rounded=1;whiteSpace=wrap;html=1;fontColor=#FFCC99;" parent="1" vertex="1">
                    <mxGeometry x="-407" y="-33" width="120" height="60" as="geometry"/>
                </mxCell>
                <mxCell id="92" style="edgeStyle=none;html=1;entryX=0.5;entryY=1;entryDx=0;entryDy=0;strokeColor=#FF8000;" parent="1" source="34" target="88" edge="1">
                    <mxGeometry relative="1" as="geometry"/>
                </mxCell>
                <mxCell id="34" value="Синхронизация&lt;br&gt;(отправляем пустой ид при пустой БД либо ид последнего сообщения)" style="rounded=1;whiteSpace=wrap;html=1;fontColor=#FFCC99;" parent="1" vertex="1">
                    <mxGeometry x="80" y="55" width="120" height="92" as="geometry"/>
                </mxCell>
                <mxCell id="139" style="edgeStyle=none;html=1;entryX=0.5;entryY=1;entryDx=0;entryDy=0;strokeColor=#FF8000;" parent="1" source="36" target="116" edge="1">
                    <mxGeometry relative="1" as="geometry"/>
                </mxCell>
                <mxCell id="36" value="&lt;span&gt;Ловит изменения в БД&lt;/span&gt;" style="rounded=1;whiteSpace=wrap;html=1;fontColor=#FFCC99;" parent="1" vertex="1">
                    <mxGeometry x="154" y="-977" width="120" height="60" as="geometry"/>
                </mxCell>
                <mxCell id="44" value="" style="edgeStyle=none;html=1;fontColor=#FFCC99;" parent="1" target="41" edge="1">
                    <mxGeometry relative="1" as="geometry">
                        <mxPoint x="-575" y="-1095.969696969697" as="sourcePoint"/>
                    </mxGeometry>
                </mxCell>
                <mxCell id="45" value="" style="edgeStyle=none;html=1;fontColor=#FFCC99;entryX=1;entryY=0.75;entryDx=0;entryDy=0;" parent="1" source="38" target="43" edge="1">
                    <mxGeometry relative="1" as="geometry"/>
                </mxCell>
                <mxCell id="46" style="edgeStyle=none;html=1;fontColor=#FFCC99;entryX=1;entryY=0.75;entryDx=0;entryDy=0;" parent="1" target="42" edge="1">
                    <mxGeometry relative="1" as="geometry">
                        <mxPoint x="-672" y="-1183" as="targetPoint"/>
                        <mxPoint x="-575" y="-1130.904761904762" as="sourcePoint"/>
                    </mxGeometry>
                </mxCell>
                <mxCell id="149" style="edgeStyle=none;html=1;entryX=0;entryY=0.75;entryDx=0;entryDy=0;strokeColor=#FF8000;" parent="1" source="38" target="144" edge="1">
                    <mxGeometry relative="1" as="geometry"/>
                </mxCell>
                <mxCell id="38" value="Style Manager" style="rounded=1;whiteSpace=wrap;html=1;fillColor=#008a00;fontColor=#FFCC99;strokeColor=#005700;" parent="1" vertex="1">
                    <mxGeometry x="-579" y="-1148" width="120" height="60" as="geometry"/>
                </mxCell>
                <mxCell id="41" value="Скины" style="rounded=1;whiteSpace=wrap;html=1;fontColor=#FFCC99;" parent="1" vertex="1">
                    <mxGeometry x="-773" y="-1096" width="120" height="60" as="geometry"/>
                </mxCell>
                <mxCell id="42" value="Темы" style="rounded=1;whiteSpace=wrap;html=1;fontColor=#FFCC99;" parent="1" vertex="1">
                    <mxGeometry x="-761" y="-1200" width="120" height="60" as="geometry"/>
                </mxCell>
                <mxCell id="43" value="Стили" style="rounded=1;whiteSpace=wrap;html=1;fontColor=#FFCC99;" parent="1" vertex="1">
                    <mxGeometry x="-697" y="-1287" width="120" height="60" as="geometry"/>
                </mxCell>
                <mxCell id="48" value="" style="edgeStyle=none;html=1;fontColor=#FFCC99;" parent="1" source="51" target="53" edge="1">
                    <mxGeometry relative="1" as="geometry"/>
                </mxCell>
                <mxCell id="49" style="edgeStyle=none;html=1;fontColor=#FFCC99;" parent="1" source="51" target="52" edge="1">
                    <mxGeometry relative="1" as="geometry"/>
                </mxCell>
                <mxCell id="50" value="" style="edgeStyle=none;html=1;fontColor=#FFCC99;" parent="1" source="51" target="54" edge="1">
                    <mxGeometry relative="1" as="geometry"/>
                </mxCell>
                <mxCell id="56" style="edgeStyle=none;html=1;entryX=0.75;entryY=0;entryDx=0;entryDy=0;fontColor=#FFCC99;" parent="1" source="51" target="55" edge="1">
                    <mxGeometry relative="1" as="geometry">
                        <mxPoint x="-391.83333333333303" y="-57" as="targetPoint"/>
                    </mxGeometry>
                </mxCell>
                <mxCell id="51" value="Sending Manager" style="rounded=1;whiteSpace=wrap;html=1;fillColor=#008a00;fontColor=#FFCC99;strokeColor=#005700;" parent="1" vertex="1">
                    <mxGeometry x="-327" y="-519" width="120" height="60" as="geometry"/>
                </mxCell>
                <mxCell id="52" value="Отслеживает соединение." style="rounded=1;whiteSpace=wrap;html=1;fontColor=#FFCC99;" parent="1" vertex="1">
                    <mxGeometry x="-692" y="-587" width="120" height="60" as="geometry"/>
                </mxCell>
                <mxCell id="53" value="Делает запросы при разворачивании приложения." style="rounded=1;whiteSpace=wrap;html=1;fontColor=#FFCC99;" parent="1" vertex="1">
                    <mxGeometry x="-682" y="-397" width="120" height="60" as="geometry"/>
                </mxCell>
                <mxCell id="54" value="Отправка / получение файлов." style="rounded=1;whiteSpace=wrap;html=1;fontColor=#FFCC99;" parent="1" vertex="1">
                    <mxGeometry x="-696" y="-496" width="120" height="60" as="geometry"/>
                </mxCell>
                <mxCell id="55" value="смотрит в бд, &lt;br&gt;ловит изменения,&amp;nbsp;&lt;br&gt;&amp;nbsp;отправляет сообщения.&amp;nbsp;" style="rounded=1;whiteSpace=wrap;html=1;fontColor=#FFCC99;" parent="1" vertex="1">
                    <mxGeometry x="-650" y="-296" width="165" height="77" as="geometry"/>
                </mxCell>
                <mxCell id="61" style="edgeStyle=none;html=1;entryX=0.5;entryY=1;entryDx=0;entryDy=0;fontColor=#FFCC99;" parent="1" source="58" target="60" edge="1">
                    <mxGeometry relative="1" as="geometry"/>
                </mxCell>
                <mxCell id="58" value="Ловит изменения в БД" style="rounded=1;whiteSpace=wrap;html=1;fontColor=#FFCC99;" parent="1" vertex="1">
                    <mxGeometry x="-274" y="-697" width="120" height="60" as="geometry"/>
                </mxCell>
                <mxCell id="62" style="edgeStyle=none;html=1;entryX=0;entryY=0.5;entryDx=0;entryDy=0;fontColor=#FFCC99;" parent="1" source="60" target="20" edge="1">
                    <mxGeometry relative="1" as="geometry"/>
                </mxCell>
                <mxCell id="60" value="Делает выборку записей, где content id есть, а файла ещё нет" style="rounded=1;whiteSpace=wrap;html=1;fontColor=#FFCC99;" parent="1" vertex="1">
                    <mxGeometry x="-304" y="-826" width="141" height="75" as="geometry"/>
                </mxCell>
                <mxCell id="71" value="обновление контента по ид" style="rounded=1;whiteSpace=wrap;html=1;fontColor=#FFCC99;" parent="1" vertex="1">
                    <mxGeometry x="799" y="-421" width="120" height="60" as="geometry"/>
                </mxCell>
                <mxCell id="72" value="ручка для сохранения, удаления сообщения." style="rounded=1;whiteSpace=wrap;html=1;fontColor=#FFCC99;" parent="1" vertex="1">
                    <mxGeometry x="799" y="-343" width="120" height="60" as="geometry"/>
                </mxCell>
                <mxCell id="81" value="ручка для сохранения, удаления сообщения." style="rounded=1;whiteSpace=wrap;html=1;fontColor=#FFCC99;" parent="1" vertex="1">
                    <mxGeometry x="677" y="-274" width="120" height="60" as="geometry"/>
                </mxCell>
                <mxCell id="82" value="" style="edgeStyle=none;html=1;fontColor=#FFCC99;strokeColor=#FF8000;" parent="1" source="85" target="86" edge="1">
                    <mxGeometry relative="1" as="geometry"/>
                </mxCell>
                <mxCell id="84" style="edgeStyle=none;html=1;fontColor=#FFCC99;strokeColor=#FF8000;" parent="1" source="85" target="88" edge="1">
                    <mxGeometry relative="1" as="geometry"/>
                </mxCell>
                <mxCell id="94" style="edgeStyle=none;html=1;strokeColor=#FF8000;" parent="1" source="85" target="90" edge="1">
                    <mxGeometry relative="1" as="geometry"/>
                </mxCell>
                <mxCell id="100" style="edgeStyle=none;html=1;strokeColor=#FF8000;" parent="1" source="85" target="99" edge="1">
                    <mxGeometry relative="1" as="geometry">
                        <mxPoint x="173" y="-184" as="targetPoint"/>
                    </mxGeometry>
                </mxCell>
                <mxCell id="85" value="Signal service +&lt;br&gt;рассылка объектов" style="rounded=1;whiteSpace=wrap;html=1;fillColor=#008a00;fontColor=#FFCC99;strokeColor=#005700;" parent="1" vertex="1">
                    <mxGeometry x="29" y="-253" width="120" height="60" as="geometry"/>
                </mxCell>
                <mxCell id="96" style="edgeStyle=none;html=1;entryX=0.5;entryY=1;entryDx=0;entryDy=0;strokeColor=#FF8000;" parent="1" source="86" target="19" edge="1">
                    <mxGeometry relative="1" as="geometry"/>
                </mxCell>
                <mxCell id="97" style="edgeStyle=none;html=1;entryX=0.433;entryY=1.033;entryDx=0;entryDy=0;entryPerimeter=0;strokeColor=#FF8000;" parent="1" source="86" target="51" edge="1">
                    <mxGeometry relative="1" as="geometry">
                        <Array as="points"/>
                    </mxGeometry>
                </mxCell>
                <mxCell id="86" value="Сигнал&lt;br&gt;Подключение" style="rounded=1;whiteSpace=wrap;html=1;fontColor=#FFCC99;" parent="1" vertex="1">
                    <mxGeometry x="-180" y="-210" width="120" height="60" as="geometry"/>
                </mxCell>
                <mxCell id="88" value="Сигнал&lt;br&gt;Синхронизация" style="rounded=1;whiteSpace=wrap;html=1;fontColor=#FFCC99;" parent="1" vertex="1">
                    <mxGeometry x="47" y="-107" width="120" height="60" as="geometry"/>
                </mxCell>
                <mxCell id="98" style="edgeStyle=none;html=1;strokeColor=#FF8000;" parent="1" source="90" target="2" edge="1">
                    <mxGeometry relative="1" as="geometry"/>
                </mxCell>
                <mxCell id="90" value="Сигнал&amp;nbsp;&lt;br&gt;о&amp;nbsp;&lt;br&gt;новых сообщениях&lt;br&gt;класс/сервис-обработчик" style="rounded=1;whiteSpace=wrap;html=1;fontColor=#FFCC99;" parent="1" vertex="1">
                    <mxGeometry x="257" y="-196" width="120" height="86" as="geometry"/>
                </mxCell>
                <mxCell id="102" style="edgeStyle=none;html=1;entryX=1;entryY=1;entryDx=0;entryDy=0;strokeColor=#FF8000;" parent="1" source="99" target="51" edge="1">
                    <mxGeometry relative="1" as="geometry"/>
                </mxCell>
                <mxCell id="104" style="edgeStyle=none;html=1;entryX=1;entryY=0.75;entryDx=0;entryDy=0;strokeColor=#FF8000;" parent="1" source="99" target="19" edge="1">
                    <mxGeometry relative="1" as="geometry"/>
                </mxCell>
                <mxCell id="107" style="edgeStyle=none;html=1;strokeColor=#FF8000;" parent="1" source="99" target="24" edge="1">
                    <mxGeometry relative="1" as="geometry">
                        <Array as="points"/>
                    </mxGeometry>
                </mxCell>
                <mxCell id="113" style="edgeStyle=none;html=1;entryX=0.339;entryY=0.995;entryDx=0;entryDy=0;entryPerimeter=0;strokeColor=#FF8000;" parent="1" source="99" target="110" edge="1">
                    <mxGeometry relative="1" as="geometry"/>
                </mxCell>
                <mxCell id="99" value="Сигнал&amp;nbsp;&lt;br&gt;изменения БД" style="rounded=1;whiteSpace=wrap;html=1;fontColor=#FFCC99;" parent="1" vertex="1">
                    <mxGeometry x="12" y="-381" width="120" height="63" as="geometry"/>
                </mxCell>
                <mxCell id="106" value="Сохраняет в БД с помощью&amp;nbsp;&lt;br&gt;Storage Manager&amp;nbsp;" style="rounded=1;whiteSpace=wrap;html=1;fontColor=#FFCC99;" parent="1" vertex="1">
                    <mxGeometry x="34" y="-784" width="120" height="60" as="geometry"/>
                </mxCell>
                <mxCell id="108" style="edgeStyle=none;html=1;fontColor=#FFCC99;" parent="1" source="110" target="111" edge="1">
                    <mxGeometry relative="1" as="geometry"/>
                </mxCell>
                <mxCell id="109" value="" style="edgeStyle=none;html=1;fontColor=#FFCC99;" parent="1" source="110" target="112" edge="1">
                    <mxGeometry relative="1" as="geometry"/>
                </mxCell>
                <mxCell id="130" style="edgeStyle=none;html=1;entryX=0.5;entryY=1;entryDx=0;entryDy=0;strokeColor=#FF8000;" parent="1" source="110" target="129" edge="1">
                    <mxGeometry relative="1" as="geometry"/>
                </mxCell>
                <mxCell id="110" value="Chat&amp;nbsp; list manager" style="rounded=1;whiteSpace=wrap;html=1;fillColor=#008a00;fontColor=#FFCC99;strokeColor=#005700;" parent="1" vertex="1">
                    <mxGeometry x="331" y="-667" width="120" height="60" as="geometry"/>
                </mxCell>
                <mxCell id="111" value="Удаление чата с удалением всех сообщений&amp;nbsp;" style="rounded=1;whiteSpace=wrap;html=1;fontColor=#FFCC99;" parent="1" vertex="1">
                    <mxGeometry x="573" y="-806" width="120" height="60" as="geometry"/>
                </mxCell>
                <mxCell id="112" value="Отображение последнего непрочитанного" style="rounded=1;whiteSpace=wrap;html=1;fontColor=#FFCC99;" parent="1" vertex="1">
                    <mxGeometry x="447" y="-833" width="120" height="60" as="geometry"/>
                </mxCell>
                <mxCell id="114" style="edgeStyle=none;html=1;fontColor=#FFCC99;" parent="1" source="116" target="117" edge="1">
                    <mxGeometry relative="1" as="geometry"/>
                </mxCell>
                <mxCell id="115" value="" style="edgeStyle=none;html=1;fontColor=#FFCC99;" parent="1" source="116" target="118" edge="1">
                    <mxGeometry relative="1" as="geometry"/>
                </mxCell>
                <mxCell id="147" style="edgeStyle=none;html=1;entryX=1;entryY=0.5;entryDx=0;entryDy=0;strokeColor=#FF8000;" parent="1" source="116" target="144" edge="1">
                    <mxGeometry relative="1" as="geometry"/>
                </mxCell>
                <mxCell id="116" value="&amp;nbsp;Message list manager" style="rounded=1;whiteSpace=wrap;html=1;fillColor=#008a00;fontColor=#FFCC99;strokeColor=#005700;" parent="1" vertex="1">
                    <mxGeometry x="80" y="-1228" width="120" height="60" as="geometry"/>
                </mxCell>
                <mxCell id="117" value="Принимает массив" style="rounded=1;whiteSpace=wrap;html=1;fontColor=#FFCC99;" parent="1" vertex="1">
                    <mxGeometry x="39" y="-1464" width="120" height="60" as="geometry"/>
                </mxCell>
                <mxCell id="118" value="Универсальный бабл- один для всех типов сообщений" style="rounded=1;whiteSpace=wrap;html=1;fontColor=#FFCC99;" parent="1" vertex="1">
                    <mxGeometry x="-136" y="-1459" width="120" height="60" as="geometry"/>
                </mxCell>
                <mxCell id="119" value="Прочтение" style="rounded=1;whiteSpace=wrap;html=1;fontColor=#FFCC99;" parent="1" vertex="1">
                    <mxGeometry x="389" y="-1077" width="120" height="60" as="geometry"/>
                </mxCell>
                <mxCell id="120" value="Удаление" style="rounded=1;whiteSpace=wrap;html=1;fontColor=#FFCC99;" parent="1" vertex="1">
                    <mxGeometry x="554" y="-1066" width="120" height="60" as="geometry"/>
                </mxCell>
                <mxCell id="121" value="Создание" style="rounded=1;whiteSpace=wrap;html=1;fontColor=#FFCC99;" parent="1" vertex="1">
                    <mxGeometry x="590" y="-953" width="120" height="60" as="geometry"/>
                </mxCell>
                <mxCell id="127" style="edgeStyle=none;html=1;strokeColor=#FF8000;entryX=0;entryY=0.5;entryDx=0;entryDy=0;" parent="1" source="126" target="128" edge="1">
                    <mxGeometry relative="1" as="geometry">
                        <mxPoint x="677.7241379310344" y="-931.6206896551723" as="targetPoint"/>
                    </mxGeometry>
                </mxCell>
                <mxCell id="138" style="edgeStyle=none;html=1;strokeColor=#FF8000;" parent="1" source="126" target="116" edge="1">
                    <mxGeometry relative="1" as="geometry"/>
                </mxCell>
                <mxCell id="126" value="Выборка списка сообщений" style="rounded=1;whiteSpace=wrap;html=1;fontColor=#FFCC99;" parent="1" vertex="1">
                    <mxGeometry x="291" y="-1182" width="120" height="60" as="geometry"/>
                </mxCell>
                <mxCell id="128" value="Пагинация" style="rounded=1;whiteSpace=wrap;html=1;fontColor=#FFCC99;" parent="1" vertex="1">
                    <mxGeometry x="479" y="-1247" width="120" height="60" as="geometry"/>
                </mxCell>
                <mxCell id="129" value="&lt;span&gt;Ловит изменения в БД&lt;/span&gt;" style="rounded=1;whiteSpace=wrap;html=1;fontColor=#FFCC99;" parent="1" vertex="1">
                    <mxGeometry x="324" y="-759" width="120" height="60" as="geometry"/>
                </mxCell>
                <mxCell id="134" style="edgeStyle=none;html=1;strokeColor=#FF8000;" parent="1" source="131" target="133" edge="1">
                    <mxGeometry relative="1" as="geometry"/>
                </mxCell>
                <mxCell id="131" value="Секции и категории" style="rounded=1;whiteSpace=wrap;html=1;fontColor=#FFCC99;" parent="1" vertex="1">
                    <mxGeometry x="584" y="-723" width="120" height="60" as="geometry"/>
                </mxCell>
                <mxCell id="132" style="edgeStyle=none;html=1;fontColor=#FFCC99;" parent="1" source="110" target="131" edge="1">
                    <mxGeometry relative="1" as="geometry"/>
                </mxCell>
                <mxCell id="133" value="Сервис выполняющий REST запросы" style="rounded=1;whiteSpace=wrap;html=1;fontColor=#FFCC99;" parent="1" vertex="1">
                    <mxGeometry x="747" y="-725" width="120" height="60" as="geometry"/>
                </mxCell>
                <mxCell id="140" value="&lt;h1&gt;Рассылка&lt;/h1&gt;&lt;p&gt;словарь&lt;/p&gt;&lt;p&gt;ид сообщения: ид чата&lt;/p&gt;&lt;p&gt;&lt;span&gt;-&amp;gt;&amp;nbsp; запрос в БД&lt;/span&gt;&lt;br&gt;&lt;/p&gt;" style="text;html=1;strokeColor=none;fillColor=none;spacing=5;spacingTop=-20;whiteSpace=wrap;overflow=hidden;rounded=0;" parent="1" vertex="1">
                    <mxGeometry x="219" y="-459" width="190" height="120" as="geometry"/>
                </mxCell>
                <mxCell id="141" value="" style="rounded=1;whiteSpace=wrap;html=1;" parent="1" vertex="1">
                    <mxGeometry x="-674" y="-1438" width="120" height="60" as="geometry"/>
                </mxCell>
                <mxCell id="142" style="edgeStyle=none;html=1;fontColor=#FFCC99;" parent="1" source="144" target="145" edge="1">
                    <mxGeometry relative="1" as="geometry"/>
                </mxCell>
                <mxCell id="143" value="" style="edgeStyle=none;html=1;fontColor=#FFCC99;" parent="1" source="144" target="146" edge="1">
                    <mxGeometry relative="1" as="geometry"/>
                </mxCell>
                <mxCell id="148" style="edgeStyle=none;html=1;entryX=0;entryY=0.25;entryDx=0;entryDy=0;strokeColor=#FF8000;" parent="1" source="144" target="116" edge="1">
                    <mxGeometry relative="1" as="geometry"/>
                </mxCell>
                <mxCell id="144" value="Калькулятор" style="rounded=1;whiteSpace=wrap;html=1;fillColor=#008a00;fontColor=#FFCC99;strokeColor=#005700;" parent="1" vertex="1">
                    <mxGeometry x="-367" y="-1142" width="120" height="60" as="geometry"/>
                </mxCell>
                <mxCell id="145" value="Калькулирует размеры объектов" style="rounded=1;whiteSpace=wrap;html=1;fontColor=#FFCC99;" parent="1" vertex="1">
                    <mxGeometry x="-353" y="-1345" width="120" height="60" as="geometry"/>
                </mxCell>
                <mxCell id="146" value="Константы отступов" style="rounded=1;whiteSpace=wrap;html=1;fontColor=#FFCC99;" parent="1" vertex="1">
                    <mxGeometry x="-494" y="-1285" width="120" height="60" as="geometry"/>
                </mxCell>
                <mxCell id="150" value="&lt;h1&gt;&lt;span&gt;Переходы / экраны / навигация ?&lt;/span&gt;&lt;/h1&gt;" style="text;html=1;strokeColor=none;fillColor=none;spacing=5;spacingTop=-20;whiteSpace=wrap;overflow=hidden;rounded=0;" parent="1" vertex="1">
                    <mxGeometry x="-502" y="-811" width="190" height="120" as="geometry"/>
                </mxCell>
                <mxCell id="151" value="Отправка новых сообщений &lt;br&gt;унарный метод /&amp;nbsp;&lt;br&gt;Strem grpc" style="rounded=1;whiteSpace=wrap;html=1;fontColor=#FFCC99;" parent="1" vertex="1">
                    <mxGeometry x="-609" y="-710" width="120" height="88" as="geometry"/>
                </mxCell>
                <mxCell id="152" style="edgeStyle=none;html=1;fontColor=#FFCC99;" parent="1" source="51" target="151" edge="1">
                    <mxGeometry relative="1" as="geometry"/>
                </mxCell>
                <mxCell id="153" value="" style="edgeStyle=none;html=1;fontColor=#FFCC99;exitX=0;exitY=0.75;exitDx=0;exitDy=0;" edge="1" target="157" parent="1" source="156">
                    <mxGeometry relative="1" as="geometry">
                        <mxPoint x="-1023" y="-869.969696969697" as="sourcePoint"/>
                    </mxGeometry>
                </mxCell>
                <mxCell id="154" value="" style="edgeStyle=none;html=1;fontColor=#FFCC99;entryX=1;entryY=0.75;entryDx=0;entryDy=0;" edge="1" source="156" target="159" parent="1">
                    <mxGeometry relative="1" as="geometry"/>
                </mxCell>
                <mxCell id="155" style="edgeStyle=none;html=1;fontColor=#FFCC99;entryX=1;entryY=0.75;entryDx=0;entryDy=0;exitX=0;exitY=0.5;exitDx=0;exitDy=0;" edge="1" target="158" parent="1" source="156">
                    <mxGeometry relative="1" as="geometry">
                        <mxPoint x="-1120" y="-957" as="targetPoint"/>
                        <mxPoint x="-1023" y="-904.9047619047619" as="sourcePoint"/>
                    </mxGeometry>
                </mxCell>
                <mxCell id="156" value="Авторизация" style="rounded=1;whiteSpace=wrap;html=1;fillColor=#008a00;fontColor=#FFCC99;strokeColor=#005700;" vertex="1" parent="1">
                    <mxGeometry x="-1028" y="-1008" width="120" height="60" as="geometry"/>
                </mxCell>
                <mxCell id="157" value="Google" style="rounded=1;whiteSpace=wrap;html=1;fontColor=#FFCC99;" vertex="1" parent="1">
                    <mxGeometry x="-1239" y="-933" width="120" height="60" as="geometry"/>
                </mxCell>
                <mxCell id="158" value="Apple" style="rounded=1;whiteSpace=wrap;html=1;fontColor=#FFCC99;" vertex="1" parent="1">
                    <mxGeometry x="-1298" y="-1060" width="120" height="60" as="geometry"/>
                </mxCell>
                <mxCell id="159" value="QR code &amp;amp; number's code in &lt;br&gt;push message&lt;br&gt;Sfera mobile app" style="rounded=1;whiteSpace=wrap;html=1;fontColor=#FFCC99;" vertex="1" parent="1">
                    <mxGeometry x="-1298" y="-1174" width="194" height="67" as="geometry"/>
                </mxCell>
                <mxCell id="160" value="" style="edgeStyle=none;html=1;fontColor=#FFCC99;" edge="1" target="164" parent="1" source="163">
                    <mxGeometry relative="1" as="geometry">
                        <mxPoint x="-1070" y="-598.969696969697" as="sourcePoint"/>
                    </mxGeometry>
                </mxCell>
                <mxCell id="161" value="" style="edgeStyle=none;html=1;fontColor=#FFCC99;" edge="1" source="163" target="166" parent="1">
                    <mxGeometry relative="1" as="geometry"/>
                </mxCell>
                <mxCell id="162" style="edgeStyle=none;html=1;fontColor=#FFCC99;" edge="1" target="165" parent="1" source="163">
                    <mxGeometry relative="1" as="geometry">
                        <mxPoint x="-1167" y="-686" as="targetPoint"/>
                        <mxPoint x="-1070" y="-633.9047619047619" as="sourcePoint"/>
                    </mxGeometry>
                </mxCell>
                <mxCell id="163" value="Call Manager" style="rounded=1;whiteSpace=wrap;html=1;fillColor=#008a00;fontColor=#FFCC99;strokeColor=#005700;" vertex="1" parent="1">
                    <mxGeometry x="-1115" y="-711" width="120" height="60" as="geometry"/>
                </mxCell>
                <mxCell id="164" value="Групповые видеозвонки" style="rounded=1;whiteSpace=wrap;html=1;fontColor=#FFCC99;" vertex="1" parent="1">
                    <mxGeometry x="-1301" y="-654" width="120" height="60" as="geometry"/>
                </mxCell>
                <mxCell id="165" value="видеозвонки" style="rounded=1;whiteSpace=wrap;html=1;fontColor=#FFCC99;" vertex="1" parent="1">
                    <mxGeometry x="-1290" y="-768" width="120" height="60" as="geometry"/>
                </mxCell>
                <mxCell id="166" value="Список звонков" style="rounded=1;whiteSpace=wrap;html=1;fontColor=#FFCC99;" vertex="1" parent="1">
                    <mxGeometry x="-1222" y="-840" width="120" height="60" as="geometry"/>
                </mxCell>
                <mxCell id="167" value="Phone number" style="rounded=1;whiteSpace=wrap;html=1;fontColor=#FFCC99;" vertex="1" parent="1">
                    <mxGeometry x="-1057" y="-1193" width="120" height="60" as="geometry"/>
                </mxCell>
                <mxCell id="168" value="" style="edgeStyle=none;html=1;fontColor=#FFCC99;entryX=0.5;entryY=1;entryDx=0;entryDy=0;" edge="1" parent="1" source="156" target="167">
                    <mxGeometry relative="1" as="geometry"/>
                </mxCell>
                <mxCell id="169" value="" style="edgeStyle=none;html=1;fontColor=#FFCC99;" edge="1" source="172" target="173" parent="1">
                    <mxGeometry relative="1" as="geometry">
                        <mxPoint x="-1078" y="-303.969696969697" as="sourcePoint"/>
                    </mxGeometry>
                </mxCell>
                <mxCell id="170" value="" style="edgeStyle=none;html=1;fontColor=#FFCC99;" edge="1" source="172" target="175" parent="1">
                    <mxGeometry relative="1" as="geometry"/>
                </mxCell>
                <mxCell id="171" style="edgeStyle=none;html=1;fontColor=#FFCC99;" edge="1" source="172" target="174" parent="1">
                    <mxGeometry relative="1" as="geometry">
                        <mxPoint x="-1175" y="-391" as="targetPoint"/>
                        <mxPoint x="-1078" y="-338.9047619047619" as="sourcePoint"/>
                    </mxGeometry>
                </mxCell>
                <mxCell id="172" value="Media Player" style="rounded=1;whiteSpace=wrap;html=1;fillColor=#008a00;fontColor=#FFCC99;strokeColor=#005700;" vertex="1" parent="1">
                    <mxGeometry x="-1118" y="-377" width="120" height="60" as="geometry"/>
                </mxCell>
                <mxCell id="173" value="Видео" style="rounded=1;whiteSpace=wrap;html=1;fontColor=#FFCC99;" vertex="1" parent="1">
                    <mxGeometry x="-1301" y="-331" width="120" height="60" as="geometry"/>
                </mxCell>
                <mxCell id="174" value="Аудио" style="rounded=1;whiteSpace=wrap;html=1;fontColor=#FFCC99;" vertex="1" parent="1">
                    <mxGeometry x="-1300" y="-416" width="120" height="60" as="geometry"/>
                </mxCell>
                <mxCell id="175" value="Картинки" style="rounded=1;whiteSpace=wrap;html=1;fontColor=#FFCC99;" vertex="1" parent="1">
                    <mxGeometry x="-1309" y="-517" width="120" height="60" as="geometry"/>
                </mxCell>
                <mxCell id="177" style="edgeStyle=none;html=1;" edge="1" parent="1" source="176" target="175">
                    <mxGeometry relative="1" as="geometry"/>
                </mxCell>
                <mxCell id="176" value="Media Viewer&amp;nbsp; ?" style="rounded=1;whiteSpace=wrap;html=1;fillColor=#008a00;fontColor=#FFCC99;strokeColor=#005700;" vertex="1" parent="1">
                    <mxGeometry x="-1117" y="-526" width="120" height="60" as="geometry"/>
                </mxCell>
            </root>
        </mxGraphModel>
    </diagram>
</mxfile>